<svg color="#ddd" version="1.1" viewBox="0 0 512 512" xmlns="http://www.w3.org/2000/svg"><ellipse cx="256" cy="256" rx="238" ry="238" fill="none" stroke="currentColor" stroke-width="35.6"/><path d="m238 261c0 24-1.77 44.4-17.7 44.4-16 0.015-17.8-20.4-17.8-44.4s0.321-80-53.3-80c-53.6 0-53.4 56-53.4 80v62.2c0 16.3 35.6 16.3 35.6 0l-4.3e-4 -62.2c-1.7e-4 -24 1.75-44.4 17.7-44.4s17.9 20.4 17.9 44.4-2.47 80 53.3 80c55.7 0 53.4-56 53.4-80s1.77-44.4 17.7-44.4 17.8 20.4 17.8 44.4-0.242 80 53.3 80 53.4-56 53.4-80v-62.2c0-16.3-35.6-16.3-35.6 0l4.1e-4 62.2c1.6e-4 24-1.75 44.4-17.7 44.4s-17.9-20.4-17.9-44.4 4.3-80-53.3-80c-57.6 0-53.4 56-53.4 80z" fill="currentColor"/></svg>