<svg version="1.1" viewBox="0 0 512 512" xmlns="http://www.w3.org/2000/svg" color="#ddd">
 <path
    d="m240 256c0 21.7 2.33 42.7-16.3 42.7s-16.3-19.6-16.3-42.7c0-44.7-4.68-75.4-49-75.4s-49 30.5-49 75.4c0 44.9-3.43 59 16.3 59 19.8 0 16.3-14.6 16.3-59 0-22.6-1.6-42.7 16.3-42.7 17.9 0 16.3 20.9 16.3 42.7 0 44.3 5.6 75.4 49 75.4s49-30.4 49-75.4c0-22.5-1.88-42.7 16.3-42.7 18.2-6e-3 16.3 20.2 16.3 42.7 0 45.1 7.78 75.4 49 75.4 41.2 0 49-30.8 49-75.4 0-44.6 2.9-59-16.3-59-19.2 0-16.3 14.6-16.3 59 0 21.5 1.81 42.7-16.3 42.7-18.1 0-16.3-19.7-16.3-42.7 0-44.5-3.22-75.4-49-75.4-45.8 0-49 30.5-49 75.4z"
    fill="currentColor"
  />
 <circle
    cx="256"
    cy="256"
    r="233"
    fill="none"
    stroke="currentColor"
    stroke-width="45"
  />
</svg>